<svg xmlns="http://www.w3.org/2000/svg" fill="none" viewBox="0 0 16 16">
   <path 
      fill="#52667D" 
      fill-rule="evenodd" 
      d="M7.636 1.344a.75.75 0 0 1 .728 0l5.987 3.326a.75.75 0 0 1 .399.663v4a.75.75 0 0 1-1.5 0V6.608L8.364 9.322a.75.75 0 0 1-.728 0l-6-3.333a.75.75 0 0 1 0-1.311l6-3.334Zm-4.092 3.99L8 7.808l4.456-2.476L8 2.858 3.544 5.333ZM5.417 10a.75.75 0 0 0-1.5 0v.667a4.083 4.083 0 1 0 8.166 0V10a.75.75 0 0 0-1.5 0v.667a2.583 2.583 0 1 1-5.166 0V10Z" 
      clip-rule="evenodd">
   </path>
</svg>