<svg 
   xmlns="http://www.w3.org/2000/svg" 
   width="20" 
   height="20" 
   fill="none">
   <path 
      d="M7 10.25a.75.75 0 0 0 0 1.5v-1.5Zm-3.486.734a.75.75 0 0 0 .656-1.35l-.656 1.35Zm1.078-.65a.75.75 0 0 0-1.5 0h1.5ZM3.667 13l-.74-.119a.75.75 0 0 0 .905.85L3.667 13Zm3.957-1.584a.75.75 0 1 0-1.248-.832l1.248.832ZM12.25 6c0 2.443-2.191 4.25-5.25 4.25v1.5c3.569 0 6.75-2.193 6.75-5.75h-1.5ZM1.75 6c0-2.443 2.191-4.25 5.25-4.25V.25C3.431.25.25 2.443.25 6h1.5ZM7 1.75c3.059 0 5.25 1.807 5.25 4.25h1.5C13.75 2.443 10.569.25 7 .25v1.5ZM4.17 9.635C2.68 8.909 1.75 7.619 1.75 6H.25c0 2.283 1.343 4.049 3.264 4.984l.656-1.35Zm-1.078.698c0 .565.02.757.007 1.094-.01.3-.049.682-.173 1.454l1.481.238c.128-.795.177-1.247.191-1.638.013-.354-.006-.712-.006-1.148h-1.5Zm.74 3.399c1.581-.358 2.98-1.098 3.792-2.316l-1.248-.832c-.522.783-1.509 1.376-2.875 1.684l.331 1.463Z" 
      fill="#3C4447"/>
</svg>