<svg 
   xmlns="http://www.w3.org/2000/svg" 
   fill="none" 
   viewBox="0 0 16 16">
   <path 
      fill="#52667D" 
      fill-rule="evenodd" 
      d="M9.47 5.048c0 1.775-.944 2.31-1.47 2.31s-1.47-.535-1.47-2.31C6.53 4.156 7.224 3.5 8 3.5c.775 0 1.47.656 1.47 1.548Zm1.5 0c0 2.285-1.33 3.81-2.97 3.81-1.64 0-2.97-1.525-2.97-3.81C5.03 3.364 6.36 2 8 2c1.64 0 2.97 1.364 2.97 3.048Zm-6.887 8.267c0-.32.104-.776.567-1.167.48-.405 1.446-.826 3.35-.826 1.904 0 2.869.42 3.35.826.462.391.566.846.566 1.167V14a.75.75 0 0 0 1.5 0v-.687c0-.66-.229-1.577-1.1-2.312-.852-.72-2.22-1.18-4.316-1.18-2.096 0-3.464.46-4.318 1.18a2.995 2.995 0 0 0-1.099 2.313V14a.75.75 0 0 0 1.5 0v-.685Z" 
      clip-rule="evenodd">
   </path>
</svg>